<svg width="14" height="14" viewBox="0 0 14 14" fill="none" xmlns="http://www.w3.org/2000/svg">
<path d="M13.8364 13.0124L9.85918 9.03524C10.7526 7.93076 11.1882 6.52559 11.0762 5.10942C10.9642 3.69325 10.3131 2.37404 9.25715 1.42375C8.20121 0.473466 6.82091 -0.0354505 5.40082 0.00192173C3.98073 0.0392939 2.62911 0.620106 1.6246 1.62462C0.620101 2.62913 0.0392936 3.98076 0.00192171 5.40086C-0.0354502 6.82096 0.473462 8.20128 1.42374 9.25723C2.37402 10.3132 3.69322 10.9643 5.10938 11.0763C6.52554 11.1883 7.9307 10.7527 9.03516 9.85927L13.0125 13.8364C13.1224 13.9426 13.2696 14.0013 13.4223 14C13.5751 13.9987 13.7213 13.9374 13.8293 13.8293C13.9374 13.7213 13.9986 13.5751 14 13.4223C14.0013 13.2695 13.9426 13.1224 13.8364 13.0124ZM5.55772 9.92809C4.69334 9.92809 3.84837 9.67177 3.12966 9.19154C2.41095 8.71131 1.85078 8.02874 1.52 7.23014C1.18921 6.43155 1.10266 5.5528 1.2713 4.70502C1.43993 3.85724 1.85617 3.0785 2.46738 2.46729C3.07859 1.85607 3.85732 1.43983 4.7051 1.27119C5.55287 1.10256 6.43161 1.18911 7.2302 1.51989C8.02879 1.85068 8.71135 2.41085 9.19158 3.12957C9.6718 3.84828 9.92812 4.69326 9.92812 5.55765C9.92682 6.71636 9.46596 7.82725 8.64663 8.64658C7.8273 9.46592 6.71643 9.92679 5.55772 9.92809Z" fill="#AB0464"/>
</svg>
