<?xml version="1.0" encoding="utf-8"?>
<?xml-stylesheet type="text/css" href="../css/style.css" ?> 
<svg version="1.1" id="facebook" xmlns="http://www.w3.org/2000/svg" xmlns:xlink="http://www.w3.org/1999/xlink" x="0px" y="0px"
	 viewBox="-30.8 -34 15.1 30.4" enable-background="new -30.8 -34 15.1 30.4" xml:space="preserve">
	<path class="elem-facebook" d="M-21.4-3.6H-28V-19h-2.8v-5.2h2.8V-28c0-0.8,0.1-1.5,0.3-2.2c0.2-0.7,0.5-1.2,0.8-1.6c0.3-0.4,0.8-0.8,1.3-1.1
		c0.5-0.3,0.9-0.5,1.4-0.7c0.4-0.1,0.9-0.2,1.5-0.3c0.5-0.1,1-0.1,1.2-0.1c0.3,0,0.6,0,1,0c1.2,0,2.6,0.2,4.3,0.5l0.5,0.1l-0.9,5.1
		l-0.5,0c-0.1,0-0.1,0-0.3,0l-1.1,0c-0.3,0-0.5,0-0.8,0c-1.9,0-2.2,0.9-2.2,1.7v2.3h4.8l-0.4,5.2h-4.5V-3.6z M-27-4.6h4.6V-20h4.5
		l0.2-3.2h-4.8v-3.3c0-1,0.4-2.7,3.2-2.7c0.2,0,0.5,0,0.7,0l1,0l0.6-3.3c-1.4-0.3-2.6-0.4-3.6-0.4c-0.4,0-0.7,0-1,0
		c-0.3,0-0.6,0.1-1.1,0.1c-0.5,0.1-0.9,0.2-1.3,0.3c-0.3,0.1-0.7,0.3-1.2,0.6c-0.4,0.2-0.7,0.5-1,0.9c-0.3,0.3-0.5,0.8-0.7,1.3
		c-0.2,0.5-0.3,1.2-0.3,1.9v4.7h-2.8v3.2h2.8V-4.6z"/>
</svg>
