<?xml version="1.0" encoding="utf-8"?>
<?xml-stylesheet type="text/css" href="../css/style.css" ?> 
<svg class="svg-logo-ima" xmlns="http://www.w3.org/2000/svg" viewBox="0 367.5 612 94">
    <path fill="#0f589f" d="M604.3,461.5v-44.7h-38.5v44.7H558v-94h7.7v7.7v33.9h38.5v-41.6h7.7v94H604.3z M504.1,455.4c10.8,0,17,0,17,0
    	s7.7-1.5,10.8-7.7l6.2,3.1c0,0-4.6,10.8-17,10.8c-10.8,0-20,0-20,0s-17,0-17-17s0-58.6,0-58.6s-1.5-20,20-20c18.5,0,20,0,20,0
    	s13.9,0,13.9,10.8l-6.2,3.1c0,0-3.1-7.7-10.8-7.7s-13.9,0-13.9,0s-13.9,0-13.9,13.9s0,58.6,0,58.6S493.3,455.4,504.1,455.4z
    	 M420.8,461.5v-94h49.3v7.7h-41.6v33.9H464v7.7h-35.5v35.5h41.6v7.7h-41.6h-7.7V461.5z M385.4,461.5h-7.7v-86.3h-23.1v-7.7H407v7.7
    	h-21.6V461.5z M337.6,461.5l-6.2-20h-24.7l-6.2,20H279l27.7-94h24.7l27.7,94H337.6z M320.6,386h-3.1l-7.7,41.6h20L320.6,386z
    	 M254.4,389.1l-17,72.5h-20l-17-69.4v69.4h-20v-94h20h10.8l13.9,63.2h3.1l13.9-63.2h30.8v94h-20v-72.5H254.4z M146.4,367.5h23.1v94
    	h-23.1V367.5z M119.2,397.6c0.4,0.9,14.2,36.4,14.2,36.4l-19.4,27.5H78.6l-2,0l31-42.5C107.6,419,119.7,409.8,119.2,397.6z
    	 M78.6,423l-30.8,38.5H0l61.1-79.8C61.1,381.8,48.1,407.4,78.6,423z M101.1,422.3l-31.4,39.2H52.8l29.6-37
    	C82.3,424.5,92.2,427.2,101.1,422.3z M116.6,393.5c0,15.1-12.3,27.4-27.4,27.4s-27.4-12.3-27.4-27.4s12.3-27.4,27.4-27.4
    	S116.6,378.3,116.6,393.5z"/>
</svg>