<?xml version="1.0" encoding="utf-8"?>
<?xml-stylesheet type="text/css" href="../css/style.css" ?> 
<svg version="1.1" id="smiley" xmlns="http://www.w3.org/2000/svg" xmlns:xlink="http://www.w3.org/1999/xlink" x="0px" y="0px"
	 viewBox="70.4 224.3 61.8 61" enable-background="new 70.4 224.3 61.8 61" xml:space="preserve">
	<path class="elem-smiley" d="M101.4,283.4c15.8,0,28.4-12.2,28.8-27.7c0.4-15.7-12.3-28.8-28.2-29.3c-0.3,0-0.5,0-0.8,0c-15.8,0-28.4,12.2-28.8,27.7
		c-0.4,15.7,12.3,28.8,28.2,29.3C100.9,283.4,101.1,283.4,101.4,283.4 M101.4,285.4c-0.3,0-0.6,0-0.8,0C83.5,284.9,70,270.9,70.4,254
		c0.4-16.6,14.1-29.7,30.8-29.7c0.3,0,0.6,0,0.8,0c17.1,0.4,30.6,14.5,30.2,31.3C131.8,272.2,118.1,285.4,101.4,285.4L101.4,285.4
		L101.4,285.4z"/>
	<path class="elem-smiley" d="M90.2,246.9C90.2,246.9,90.2,246.9,90.2,246.9c-0.8,0-1.4-0.6-1.4-1.4c0-0.7,0.6-1.3,1.4-1.3c0,0,0,0,0,0
		c0.8,0,1.4,0.6,1.3,1.4C91.6,246.3,91,246.9,90.2,246.9L90.2,246.9L90.2,246.9z"/>
	<path class="elem-smiley" d="M112.3,246.9C112.3,246.9,112.3,246.9,112.3,246.9c-0.8,0-1.4-0.6-1.4-1.4c0-0.7,0.6-1.3,1.4-1.3c0,0,0,0,0,0
		c0.8,0,1.4,0.6,1.3,1.4C113.6,246.3,113,246.9,112.3,246.9L112.3,246.9L112.3,246.9z"/>
	<path class="elem-smiley" d="M118,255.1c0,0.1,0,0.3,0,0.4c-0.2,8.9-7.4,15.8-16.4,15.8c-0.1,0-0.3,0-0.4,0c-8.9-0.2-16.1-7.5-16.1-16.2h-2
		c0,9.9,8,18,18,18.2c0.2,0,0.3,0,0.5,0c10,0,18.2-7.9,18.4-17.8c0-0.2,0-0.3,0-0.5H118z"/>
</svg>
