<?xml version="1.0" encoding="utf-8"?>
<!-- Generated by IcoMoon.io -->
<!DOCTYPE svg PUBLIC "-//W3C//DTD SVG 1.1//EN" "http://www.w3.org/Graphics/SVG/1.1/DTD/svg11.dtd">
<svg version="1.1" xmlns="http://www.w3.org/2000/svg" xmlns:xlink="http://www.w3.org/1999/xlink" width="26" height="32" viewBox="0 0 26 32">
<path fill="#b3b801" d="M6.924 8.093h0.707c0.026 0.007 0.056 0.011 0.088 0.011 0.19 0 0.344-0.154 0.344-0.344 0-0.033-0.005-0.064-0.013-0.094-0.001-0.048-0.001-0.109-0.001-0.169 0-2.482 1.121-4.703 2.885-6.183 0.117-0.073 0.186-0.186 0.186-0.315 0-0.116-0.055-0.218-0.141-0.283l-0.451-0.558c-0.067-0.107-0.184-0.178-0.318-0.178-0.119 0-0.225 0.056-0.293 0.142-2.096 1.799-3.415 4.451-3.415 7.411 0 0.046 0 0.091 0.001 0.136-0.009 0.022-0.014 0.055-0.014 0.089 0 0.191 0.155 0.346 0.346 0.346 0.032 0 0.063-0.004 0.092-0.012zM11.72 8.111h-0.708c-0.026 0.007-0.056 0.011-0.086 0.011-0.19 0-0.345-0.154-0.345-0.345 0-0.033 0.005-0.065 0.013-0.095-0.001-0.012-0.001-0.030-0.001-0.047 0-2.324 1.032-4.408 2.663-5.817 0.268-0.201 0.396-0.236 0.622 0.026l0.45 0.525c0.094 0.068 0.154 0.177 0.154 0.3 0 0.136-0.074 0.256-0.184 0.32-1.326 1.128-2.16 2.796-2.16 4.658 0 0.015 0 0.030 0 0.045 0.007 0.024 0.011 0.054 0.011 0.086 0 0.19-0.154 0.344-0.344 0.344-0.030 0-0.060-0.004-0.088-0.011zM19.411 11.045v1.765h1.158c7.499 0.028 7.496 11.602 0 11.574h-1.158v3.008c0 0 0 0 0 0 0 2.517-2.024 4.561-4.533 4.593l-10.302-0.039c-2.528-0.038-4.564-2.094-4.57-4.626v-16.348c0.013-0.798 0.652-1.442 1.446-1.466l16.514 0.062c0.801 0.019 1.444 0.673 1.446 1.476zM4.569 30.378l10.3 0.039c1.656-0.016 2.992-1.362 2.992-3.020 0-0.003 0-0.007-0-0.010v-16.248l-16.319-0.061v16.249c0 0.001 0 0.002 0 0.003 0 1.677 1.352 3.038 3.025 3.053zM19.411 14.352v8.467h1.158c5.472 0.020 5.474-8.448 0-8.468z"></path>
</svg>
