<?xml version="1.0" encoding="utf-8"?>
<!-- Generated by IcoMoon.io -->
<!DOCTYPE svg PUBLIC "-//W3C//DTD SVG 1.1//EN" "http://www.w3.org/Graphics/SVG/1.1/DTD/svg11.dtd">
<svg version="1.1" xmlns="http://www.w3.org/2000/svg" xmlns:xlink="http://www.w3.org/1999/xlink" width="13" height="32" viewBox="0 0 13 32">
<path fill="#82147b" d="M12.394 31.040c-0.162 0.551-0.664 0.946-1.257 0.946-0.009 0-0.017-0-0.026-0-3.984-0.055-7.011-2.958-8.884-7.024-1.411-3.164-2.232-6.857-2.232-10.742 0-1.973 0.212-3.897 0.614-5.75 0.99-4.184 3.375-7.627 7.293-8.447 0.081-0.018 0.174-0.028 0.269-0.028 0.494 0 0.925 0.272 1.15 0.675 0.85 1.613 1.346 3.518 1.346 5.538 0 1.146-0.16 2.254-0.458 3.304-0.101 0.394-0.476 0.762-0.949 0.872l-2.53 0.596c-0.325 1.156-0.512 2.483-0.512 3.854 0 2.416 0.58 4.696 1.609 6.708l2.553 0.002c0.506 0.012 0.94 0.31 1.147 0.738 0.835 1.598 1.323 3.481 1.323 5.478 0 1.167-0.167 2.295-0.477 3.362zM11.052 30.53c0.235-0.83 0.37-1.784 0.37-2.769 0-1.748-0.425-3.397-1.178-4.848l-2.564-0.027c-0.498-0.003-0.926-0.297-1.124-0.72-1.117-2.142-1.771-4.669-1.771-7.349 0-1.517 0.209-2.985 0.601-4.377 0.122-0.35 0.484-0.706 0.941-0.842l2.531-0.597c0.239-0.842 0.376-1.809 0.376-2.808 0-1.733-0.414-3.369-1.147-4.816-3.213 0.771-5.211 3.788-6.113 7.621-0.341 1.567-0.537 3.368-0.537 5.214 0 3.658 0.768 7.137 2.151 10.284 1.582 3.415 4.144 5.977 7.463 6.035z"></path>
</svg>
