<?xml version="1.0" encoding="utf-8"?>
<!-- Generated by IcoMoon.io -->
<!DOCTYPE svg PUBLIC "-//W3C//DTD SVG 1.1//EN" "http://www.w3.org/Graphics/SVG/1.1/DTD/svg11.dtd">
<svg version="1.1" xmlns="http://www.w3.org/2000/svg" xmlns:xlink="http://www.w3.org/1999/xlink" width="44" height="32" viewBox="0 0 44 32">
<path fill="#b8025a" d="M6.975-0.011l29.874 0.073c3.86 0.015 6.984 3.147 6.984 7.010 0 0.001 0 0.001 0 0.002v18.003c-0.012 3.83-3.12 6.929-6.951 6.929-0.010 0-0.020-0-0.030-0l-29.873-0.073c-3.846-0.009-6.964-3.119-6.984-6.962v-18.005c0-0.004 0-0.009 0-0.014 0-3.845 3.117-6.962 6.962-6.962 0.006 0 0.012 0 0.018 0zM36.85 0.961l-29.874-0.075c-0.001 0-0.001 0-0.002 0-1.401 0-2.69 0.477-3.715 1.277l14.837 14.911c0.995 0.95 2.346 1.534 3.833 1.534 1.478 0 2.821-0.577 3.816-1.518l14.811-14.846c-1.006-0.8-2.296-1.284-3.698-1.284-0.002 0-0.005 0-0.007 0zM2.477 29.039l13.151-13.151-13.019-13.122c-1.055 1.053-1.708 2.508-1.708 4.116 0 0.030 0 0.060 0.001 0.089l-0 18c-0 0.008-0 0.018-0 0.028 0 1.56 0.598 2.98 1.577 4.044zM41.223 2.863l-13.056 13.057 13.208 13.217c0.962-1.074 1.553-2.497 1.565-4.058v-18.007c0-0.020 0-0.044 0-0.068 0-1.619-0.657-3.085-1.719-4.145zM17.474 17.687l-1.188-1.184-13.151 13.151c1.038 0.857 2.382 1.378 3.847 1.381l29.875 0.073c1.462-0.003 2.804-0.515 3.857-1.37l-13.172-13.163-1.139 1.132c-1.148 1.122-2.72 1.815-4.454 1.815-1.744 0-3.324-0.701-4.475-1.836z"></path>
</svg>
