<?xml version="1.0" encoding="utf-8"?>
<?xml-stylesheet type="text/css" href="../css/style.css" ?> 
<svg version="1.1" id="pop3" xmlns="http://www.w3.org/2000/svg" xmlns:xlink="http://www.w3.org/1999/xlink" x="0px" y="0px"
	 viewBox="101.3 254.8 25.1 25.1" enable-background="new 101.3 254.8 25.1 25.1" xml:space="preserve">
		<path class="branche" fill-rule="evenodd" clip-rule="evenodd" d="M121.3,265.6c0-0.2-0.1-0.3-0.1-0.5l5.1-1.4l0.1,0.5L121.3,265.6z M117.4,260.6
			l2.6-4.5l0.4,0.2l-2.6,4.6C117.7,260.7,117.6,260.6,117.4,260.6z M111.5,259.7l-1.3-4.7l0.5-0.1l1.3,4.7
			C111.8,259.6,111.6,259.6,111.5,259.7z M106.3,263.4l-3.8-2.2l0.2-0.4l3.8,2.2C106.5,263.1,106.4,263.2,106.3,263.4z M105.3,270
			l-3.9,1.1l-0.1-0.5l3.9-1.1C105.2,269.7,105.3,269.8,105.3,270z M109.7,275.2l-2,3.5l-0.4-0.2l2-3.5
			C109.4,275.1,109.5,275.2,109.7,275.2z M116.3,275.5l1.2,4.3l-0.5,0.1l-1.2-4.2C116,275.6,116.2,275.6,116.3,275.5z M120.9,271.1
			l4.3,2.4L125,274l-4.3-2.4C120.8,271.4,120.9,271.3,120.9,271.1z"/>
</svg>
