<?xml version="1.0" encoding="utf-8"?>
<?xml-stylesheet type="text/css" href="../css/style.css" ?> 
<svg version="1.1" id="twitter" xmlns="http://www.w3.org/2000/svg" xmlns:xlink="http://www.w3.org/1999/xlink" x="0px" y="0px"
	 viewBox="-23.2 -18.8 45.7 37" enable-background="new -23.2 -18.8 45.7 37" xml:space="preserve">
	<path class="elem-twitter" d="M-8.1,18.2c-2.3,0-4.7-0.3-7-1c-2.3-0.7-4.6-1.6-6.6-2.7l-1.5-0.8l1.8-0.1c5.4-0.3,9.2-1.3,11.5-3.1
		c-1.7-0.2-3.2-0.9-4.4-1.9c-1.4-1.3-2.3-2.9-2.7-4.7L-17.2,3l0.8,0.2c0.2,0,0.4,0.1,0.5,0.1c-0.8-0.5-1.6-1.1-2.3-1.9
		c-1.4-1.6-2.1-3.3-2.1-5.2c0-0.4,0.1-0.9,0.2-1.6L-20-6l0.6,0.2c0.1,0,0.4,0.2,0.8,0.3c0.3,0.1,0.5,0.2,0.8,0.3
		c-1.6-1.8-2.4-3.7-2.4-5.8v-0.2c0.1-2.3,0.5-4,1.2-5.2l0.4-0.6l0.4,0.6c2.3,3.1,5.2,5.4,8.5,6.9c0.6,0.3,1.1,0.5,1.5,0.6
		C-7.8-8.6-7-8.3-6-8.1l0.1,0c0.1,0,0.1,0,0.2,0c0,0,0.1,0,0.1,0l0.1,0c0.6,0.1,1.1,0.2,1.3,0.3c0.1,0,0.5,0.1,1.7,0.4
		C-1.7-7.1-1.3-7-1-7C-1-7.4-1.1-7.9-1.1-8.3c0-1.8,0.4-3.4,1.2-4.9c0.8-1.5,1.9-2.7,3.3-3.6c1.4-0.9,3-1.3,4.7-1.3
		c2.3,0,4.5,0.9,6.5,2.7c2-0.3,3.9-1.1,5.5-2.4l1.2-0.9l-0.4,1.5c-0.5,1.7-1.3,3.2-2.5,4.4c1-0.2,2-0.5,2.9-0.9l1.2-0.4l-0.5,1.1
		c-0.5,1-1.1,1.8-1.8,2.5c-0.7,0.6-1.5,1.3-2.4,1.9v0.3c0,0.1,0,0.2,0,0.5c0,0,0,0.1,0,0.1l0,0.3c0,2.3-0.3,4.6-0.9,6.8
		c-0.6,2.2-1.5,4.3-2.6,6.2c-1.1,1.9-2.5,3.6-4,5.2c-1.6,1.6-3.3,2.9-5.2,4c-1.9,1.1-3.9,2-6.2,2.6C-3.5,17.9-5.8,18.2-8.1,18.2z
		 M-19.6,14.4c1.5,0.7,3.1,1.3,4.8,1.8c4.5,1.3,9.1,1.3,13.3,0.1c2.1-0.6,4.1-1.4,5.9-2.5c1.8-1.1,3.5-2.4,5-3.9
		c1.5-1.5,2.8-3.2,3.9-5c1.1-1.8,1.9-3.8,2.5-5.9c0.6-2,0.8-4,0.9-6.1l0-0.5c0-0.1,0-0.3,0-0.5c0-0.2,0-0.3,0-0.4v-0.8l0.2-0.1
		c1-0.6,1.9-1.3,2.5-1.9c0.3-0.3,0.7-0.7,0.9-1.1c-1.1,0.4-2.4,0.7-3.7,0.9l-2.2,0.4l1.8-1.3c1.4-1,2.4-2.2,3.1-3.7
		c-1.5,0.9-3.1,1.5-4.9,1.7l-0.2,0l-0.2-0.2c-1.8-1.7-3.8-2.6-6-2.6c-1.5,0-2.9,0.4-4.2,1.2c-1.3,0.8-2.3,1.9-3,3.2
		c-0.7,1.4-1.1,2.8-1.1,4.4c0,0.6,0.1,1.2,0.2,1.7l0.1,0.4l-0.3,0.2C-0.6-5.9-1.3-6-2.7-6.3c-1.1-0.3-1.5-0.3-1.6-0.4
		c-0.3,0-0.7-0.1-1.3-0.3c-0.1,0-0.1,0-0.2,0H-6L-6.1-7c-0.1,0-0.2,0-0.2-0.1c-1.1-0.3-1.8-0.5-2.3-0.7C-9-7.9-9.5-8.2-10.2-8.5
		c-3.3-1.5-6.1-3.7-8.4-6.6c-0.4,1-0.7,2.3-0.7,4v0.2c0,2.3,1.1,4.5,3.4,6.4l1,0.9h-1.4c-0.3,0-0.6-0.1-1-0.2
		c-0.4-0.1-0.7-0.2-0.9-0.3c-0.3-0.1-0.6-0.2-1-0.4c0,0-0.1,0-0.1-0.1c0,0.3-0.1,0.6-0.1,0.8c0,1.6,0.6,3.2,1.8,4.6
		c1.2,1.4,2.8,2.3,4.5,2.6l2.8,0.5l-2.8,0.5c-0.6,0.1-1.1,0.2-1.5,0.2c-0.4,0-0.9,0-1.5-0.1c0.4,1.3,1.2,2.5,2.2,3.5
		c1.2,1.1,2.9,1.7,4.9,1.8l1.1,0l-0.8,0.8C-10.5,12.6-14.2,14-19.6,14.4z"/>
</svg>
