<?xml version="1.0" encoding="utf-8"?>
<!-- Generated by IcoMoon.io -->
<!DOCTYPE svg PUBLIC "-//W3C//DTD SVG 1.1//EN" "http://www.w3.org/Graphics/SVG/1.1/DTD/svg11.dtd">
<svg version="1.1" xmlns="http://www.w3.org/2000/svg" xmlns:xlink="http://www.w3.org/1999/xlink" width="20" height="32" viewBox="0 0 20 32">
<path fill="#777a05" d="M1.115 1.463c-0.456-0.268-0.194-0.535 0.198-1.202 0.045-0.151 0.183-0.26 0.346-0.26 0.094 0 0.179 0.036 0.243 0.094l5.772 3.419c0.447 0.255 0.744 0.728 0.748 1.27l-0.008 2.905 9.797 0.023c0.777 0.013 1.402 0.647 1.402 1.426 0 0.028-0.001 0.056-0.002 0.083-0.183 7.976-3.593 14.41-3.806 21.354-0.004 0.792-0.646 1.432-1.439 1.432-0 0-0.001 0-0.001 0l-9.241-0.022c-0.783-0.026-1.411-0.656-1.434-1.438-0.179-6.946-3.527-13.397-3.705-21.377-0-0.007-0-0.016-0-0.025 0-0.803 0.642-1.455 1.44-1.473l5.421 0.013v-2.837c-1.917-1.107-3.808-2.246-5.732-3.386zM6.827 15.932l0.016-6.643-5.29-0.013c0.085 2.18 0.349 4.245 0.78 6.249 0.857 0.268 1.931 0.565 3.076 0.565 0.503 0 0.992-0.057 1.462-0.166zM18.076 9.321l-9.666-0.023-0.014 6.177c2.876-1.062 5.394-2.592 9.074-0.948 0.313-1.524 0.53-3.315 0.604-5.143zM5.258 30.422l9.013 0.022c0.175-4.941 1.815-9.544 2.875-14.349-5.444-2.617-8.53 3.318-14.435 1.101 1.001 4.405 2.395 8.648 2.547 13.222z"></path>
</svg>
